<svg xmlns="http://www.w3.org/2000/svg" width="1200" height="900" viewBox="0 0 1200 900">
  <defs>
    <linearGradient id="bg" x1="0" y1="0" x2="1" y2="1">
      <stop offset="0" stop-color="#fffbeb"/>
      <stop offset="0.55" stop-color="#ffffff"/>
      <stop offset="1" stop-color="#fef3c7"/>
    </linearGradient>
    <radialGradient id="glow" cx="45%" cy="38%" r="75%">
      <stop offset="0" stop-color="#f59e0b" stop-opacity="0.18"/>
      <stop offset="1" stop-color="#f59e0b" stop-opacity="0"/>
    </radialGradient>
  </defs>
  <rect width="1200" height="900" rx="56" fill="url(#bg)"/>
  <rect width="1200" height="900" rx="56" fill="url(#glow)"/>
  <g transform="translate(0 20)">
    <path d="M600 210c-140 0-255 115-255 255s115 255 255 255 255-115 255-255-115-255-255-255Z" fill="none" stroke="#a1a1aa" stroke-width="22" opacity="0.75"/>
    <path d="M600 255c-115 0-210 95-210 210s95 210 210 210 210-95 210-210-95-210-210-210Z" fill="none" stroke="#d4d4d8" stroke-width="16"/>
    <path d="M420 360c65-55 135-82 180-82s115 27 180 82" fill="none" stroke="#ca8a04" stroke-width="14" stroke-linecap="round" opacity="0.75"/>
    <path d="M465 610c46 34 94 50 135 50s89-16 135-50" fill="none" stroke="#ca8a04" stroke-width="14" stroke-linecap="round" opacity="0.55"/>
    <circle cx="600" cy="465" r="14" fill="#fde68a" stroke="#a16207" stroke-width="8"/>
    <circle cx="520" cy="435" r="10" fill="#fff7ed" stroke="#a16207" stroke-width="6" opacity="0.75"/>
    <circle cx="680" cy="435" r="10" fill="#fff7ed" stroke="#a16207" stroke-width="6" opacity="0.75"/>
  </g>
  <g opacity="0.75">
    <text x="70" y="110" font-family="ui-sans-serif, system-ui, -apple-system, Segoe UI, Roboto" font-size="36" fill="#18181b" font-weight="700">Dummy Jewellery Photo</text>
    <text x="70" y="155" font-family="ui-sans-serif, system-ui, -apple-system, Segoe UI, Roboto" font-size="20" fill="#52525b" font-weight="600">Bangle • Placeholder SVG</text>
  </g>
</svg>
