<svg xmlns="http://www.w3.org/2000/svg" width="1200" height="900" viewBox="0 0 1200 900">
  <defs>
    <linearGradient id="bg" x1="0" y1="0" x2="1" y2="1">
      <stop offset="0" stop-color="#fdf4ff"/>
      <stop offset="0.55" stop-color="#ffffff"/>
      <stop offset="1" stop-color="#fce7f3"/>
    </linearGradient>
    <radialGradient id="glow" cx="55%" cy="35%" r="70%">
      <stop offset="0" stop-color="#ec4899" stop-opacity="0.22"/>
      <stop offset="1" stop-color="#ec4899" stop-opacity="0"/>
    </radialGradient>
  </defs>
  <rect width="1200" height="900" rx="56" fill="url(#bg)"/>
  <rect width="1200" height="900" rx="56" fill="url(#glow)"/>
  <g transform="translate(0 20)">
    <path d="M600 240c-80 0-145 65-145 145s65 145 145 145 145-65 145-145-65-145-145-145Z" fill="none" stroke="#d4d4d8" stroke-width="18"/>
    <path d="M600 280c-58 0-105 47-105 105s47 105 105 105 105-47 105-105-47-105-105-105Z" fill="none" stroke="#a1a1aa" stroke-width="22" opacity="0.75"/>
    <path d="M600 170c28 0 50 22 50 50s-22 50-50 50-50-22-50-50 22-50 50-50Z" fill="#fff7ed" stroke="#a16207" stroke-width="10"/>
    <path d="M600 220v40" stroke="#a16207" stroke-width="12" stroke-linecap="round"/>
    <path d="M600 510c0 80-55 125-120 125-66 0-120-45-120-110 0-62 46-106 105-112" fill="none" stroke="#a1a1aa" stroke-width="22" stroke-linecap="round"/>
    <path d="M600 510c0 80 55 125 120 125 66 0 120-45 120-110 0-62-46-106-105-112" fill="none" stroke="#d4d4d8" stroke-width="18" stroke-linecap="round"/>
    <circle cx="600" cy="690" r="30" fill="#fce7f3" stroke="#be185d" stroke-width="10"/>
  </g>
  <g opacity="0.75">
    <text x="70" y="110" font-family="ui-sans-serif, system-ui, -apple-system, Segoe UI, Roboto" font-size="36" fill="#18181b" font-weight="700">Dummy Jewellery Photo</text>
    <text x="70" y="155" font-family="ui-sans-serif, system-ui, -apple-system, Segoe UI, Roboto" font-size="20" fill="#52525b" font-weight="600">Earring • Placeholder SVG</text>
  </g>
</svg>
