<svg xmlns="http://www.w3.org/2000/svg" width="1200" height="900" viewBox="0 0 1200 900">
  <defs>
    <linearGradient id="bg" x1="0" y1="0" x2="1" y2="1">
      <stop offset="0" stop-color="#f1f5f9"/>
      <stop offset="0.55" stop-color="#ffffff"/>
      <stop offset="1" stop-color="#e0f2fe"/>
    </linearGradient>
    <radialGradient id="glow" cx="55%" cy="38%" r="75%">
      <stop offset="0" stop-color="#0ea5e9" stop-opacity="0.16"/>
      <stop offset="1" stop-color="#0ea5e9" stop-opacity="0"/>
    </radialGradient>
  </defs>
  <rect width="1200" height="900" rx="56" fill="url(#bg)"/>
  <rect width="1200" height="900" rx="56" fill="url(#glow)"/>
  <g transform="translate(0 10)">
    <path d="M600 180c0 90-40 160-120 210" fill="none" stroke="#a1a1aa" stroke-width="18" stroke-linecap="round"/>
    <path d="M600 180c0 90 40 160 120 210" fill="none" stroke="#d4d4d8" stroke-width="14" stroke-linecap="round"/>
    <path d="M600 330c-65 0-118 53-118 118s53 118 118 118 118-53 118-118-53-118-118-118Z" fill="#ffffff" stroke="#334155" stroke-width="16"/>
    <path d="M600 360l50 42-50 42-50-42 50-42Z" fill="#e0f2fe" stroke="#0284c7" stroke-width="10" stroke-linejoin="round"/>
    <circle cx="600" cy="448" r="18" fill="#ffffff" stroke="#0284c7" stroke-width="10"/>
    <path d="M600 566c0 60-42 108-100 116" fill="none" stroke="#d4d4d8" stroke-width="14" stroke-linecap="round"/>
    <path d="M600 566c0 60 42 108 100 116" fill="none" stroke="#a1a1aa" stroke-width="18" stroke-linecap="round"/>
  </g>
  <g opacity="0.75">
    <text x="70" y="110" font-family="ui-sans-serif, system-ui, -apple-system, Segoe UI, Roboto" font-size="36" fill="#18181b" font-weight="700">Dummy Jewellery Photo</text>
    <text x="70" y="155" font-family="ui-sans-serif, system-ui, -apple-system, Segoe UI, Roboto" font-size="20" fill="#52525b" font-weight="600">Pendant • Placeholder SVG</text>
  </g>
</svg>
